<svg width="24" height="24" viewBox="0 0 24 24" fill="none" xmlns="http://www.w3.org/2000/svg">
<path fill-rule="evenodd" clip-rule="evenodd" d="M11.6206 2.0072C11.7465 2.0025 11.873 2.00013 12 2.00013C12.127 2.00013 12.2535 2.0025 12.3794 2.0072C12.4959 1.99311 12.6135 1.99984 12.7265 2.02612C17.9102 2.39828 22 6.72159 22 12.0001C22 17.2787 17.9102 21.602 12.7265 21.9741C12.6135 22.0004 12.4959 22.0072 12.3794 21.9931C12.2535 21.9978 12.127 22.0001 12 22.0001C11.873 22.0001 11.7465 21.9978 11.6206 21.9931C11.504 22.0072 11.3865 22.0004 11.2735 21.9741C6.08979 21.602 2 17.2787 2 12.0001C2 6.72161 6.08979 2.3983 11.2735 2.02612C11.3865 1.99984 11.504 1.99311 11.6206 2.0072ZM14.3753 19.6416C16.3116 19.0404 17.9329 17.7234 18.9297 16.0001H15.6277C15.3421 17.2535 14.9225 18.4745 14.3753 19.6416ZM13.5697 16.0001C13.2202 17.3537 12.6937 18.6603 12 19.8851C11.3063 18.6603 10.7797 17.3537 10.4302 16.0001H13.5697ZM15.9663 14.0001H19.748C19.9125 13.3609 20 12.6907 20 12.0001C20 11.3095 19.9125 10.6394 19.748 10.0001H15.9663C16.0404 10.6622 16.0778 11.3298 16.0778 12.0001C16.0778 12.6705 16.0404 13.3381 15.9663 14.0001ZM13.9523 10.0001C14.0356 10.6613 14.0778 11.3292 14.0778 12.0001C14.0778 12.6711 14.0356 13.339 13.9523 14.0001H10.0477C9.96437 13.339 9.92218 12.6711 9.92218 12.0001C9.92218 11.3292 9.96437 10.6613 10.0477 10.0001H13.9523ZM15.6277 8.00013H18.9297C17.9329 6.27682 16.3116 4.95988 14.3753 4.35866C14.9225 5.52579 15.3421 6.74677 15.6277 8.00013ZM13.5697 8.00013H10.4302C10.7797 6.64656 11.3063 5.33993 12 4.11517C12.6937 5.33993 13.2202 6.64656 13.5697 8.00013ZM9.62469 4.35867C7.68839 4.9599 6.06714 6.27683 5.07026 8.00013H8.37225C8.65792 6.74677 9.07745 5.52579 9.62469 4.35867ZM8.03363 10.0001H4.25203C4.08751 10.6394 4 11.3095 4 12.0001C4 12.6907 4.08751 13.3609 4.25204 14.0001H8.03363C7.95961 13.3381 7.92218 12.6705 7.92218 12.0001C7.92218 11.3298 7.95961 10.6622 8.03363 10.0001ZM8.37225 16.0001C8.65792 17.2535 9.07746 18.4745 9.62469 19.6416C7.68839 19.0404 6.06714 17.7234 5.07026 16.0001H8.37225Z" fill="white"/>
</svg>
